<svg xmlns="http://www.w3.org/2000/svg" width="1200" height="380" viewBox="0 0 1200 380" role="img" aria-label="Flight Departure Delay Analysis — predicting flight departure delays with machine learning">
  <defs>
    <linearGradient id="bg" x1="0" y1="0" x2="1" y2="1">
      <stop offset="0" stop-color="#052e26"/>
      <stop offset="0.55" stop-color="#0d9488"/>
      <stop offset="1" stop-color="#5eead4"/>
    </linearGradient>
    <radialGradient id="glow" cx="0.82" cy="0.25" r="0.6">
      <stop offset="0" stop-color="#ccfbf1" stop-opacity="0.35"/>
      <stop offset="1" stop-color="#ccfbf1" stop-opacity="0"/>
    </radialGradient>
  </defs>
  <rect width="1200" height="380" rx="20" fill="url(#bg)"/>
  <rect width="1200" height="380" rx="20" fill="url(#glow)"/>

  <!-- MOTIF: airplane + clock (departure delay) line-art -->
  <g transform="translate(980,190)" stroke="#ccfbf1" stroke-width="6" fill="none" stroke-linecap="round" stroke-linejoin="round" opacity="0.92">
    <!-- airplane, ascending -->
    <path d="M -78 28 L 6 -2 L 30 -42 q 6 -12 18 -8 q 9 4 4 16 L 30 18 L 70 30 L 80 14 q 4 -7 11 -4 q 6 3 2 11 L 78 56 L 56 92 q -5 8 -13 4 q -6 -4 -2 -12 L 54 56 L 16 46 L -2 70 q -5 7 -12 3 q -5 -3 -2 -10 L -2 36 L -78 28 Z"/>
    <!-- clock face -->
    <circle cx="-2" cy="118" r="46"/>
    <path d="M -2 118 L -2 90"/>
    <path d="M -2 118 L 22 130"/>
    <path d="M -2 70 L -2 78 M -2 158 L -2 166 M -50 118 L -42 118 M 38 118 L 46 118"/>
  </g>

  <!-- wordmark -->
  <text x="80" y="150" font-family="Segoe UI, Helvetica, Arial, sans-serif" font-size="66" font-weight="800" fill="#ffffff">Flight Departure</text>
  <text x="80" y="220" font-family="Segoe UI, Helvetica, Arial, sans-serif" font-size="66" font-weight="800" fill="#ffffff">Delay Analysis</text>
  <text x="84" y="272" font-family="Segoe UI, Helvetica, Arial, sans-serif" font-size="28" fill="#ccfbf1">Predicting departure delays with machine learning</text>
  <text x="84" y="312" font-family="Segoe UI, Helvetica, Arial, sans-serif" font-size="22" fill="#f0fdfa">Turn historical flight data into delay predictions.</text>
  <text x="84" y="346" font-family="Segoe UI, Helvetica, Arial, sans-serif" font-size="19" fill="#99f6e4">python · pandas · scikit-learn · aviation · classification · data-analysis</text>
</svg>
